<svg xmlns="http://www.w3.org/2000/svg" width="36.968" height="36.968" viewBox="0 0 36.968 36.968">
  <g id="Group_59753" data-name="Group 59753" transform="translate(-856.124 -2363.4)">
    <path id="Path_69035" data-name="Path 69035" d="M258.679,74.416a18.009,18.009,0,0,1-12.7-5.279" transform="translate(615.93 2325.452)" fill="none" stroke="#246bfd" stroke-miterlimit="10" stroke-width="1"/>
    <path id="Path_69036" data-name="Path 69036" d="M274.182,1a18.009,18.009,0,0,1,12.7,5.279" transform="translate(600.427 2362.9)" fill="none" stroke="#246bfd" stroke-miterlimit="10" stroke-width="1"/>
    <line id="Line_1" data-name="Line 1" x2="0.696" y2="0.87" transform="translate(888.125 2370.05)" fill="none" stroke="#246bfd" stroke-miterlimit="10" stroke-width="1"/>
    <line id="Line_2" data-name="Line 2" x2="0.696" y2="0.87" transform="translate(860.396 2392.965)" fill="none" stroke="#246bfd" stroke-miterlimit="10" stroke-width="1"/>
    <path id="Path_69037" data-name="Path 69037" d="M234.252,25.426a18.009,18.009,0,0,1,5.28-12.7" transform="translate(622.372 2356.458)" fill="none" stroke="#246bfd" stroke-miterlimit="10" stroke-width="1"/>
    <path id="Path_69038" data-name="Path 69038" d="M307.669,40.929a18.007,18.007,0,0,1-5.28,12.7" transform="translate(584.924 2340.955)" fill="none" stroke="#246bfd" stroke-miterlimit="10" stroke-width="1"/>
    <line id="Line_3" data-name="Line 3" x1="0.871" y2="0.696" transform="translate(885.573 2395.401)" fill="none" stroke="#246bfd" stroke-miterlimit="10" stroke-width="1"/>
    <line id="Line_4" data-name="Line 4" x1="0.87" y2="0.696" transform="translate(862.658 2367.671)" fill="none" stroke="#246bfd" stroke-miterlimit="10" stroke-width="1"/>
    <path id="Path_69039" data-name="Path 69039" d="M267.81,1h-4.061a1.16,1.16,0,1,0,0,2.32h1.741" transform="translate(606.798 2362.9)" fill="none" stroke="#246bfd" stroke-miterlimit="10" stroke-width="1"/>
    <path id="Path_69040" data-name="Path 69040" d="M261.951,6.152H257.31a1.16,1.16,0,0,0,0,2.32h4.641" transform="translate(610.337 2360.069)" fill="none" stroke="#246bfd" stroke-miterlimit="10" stroke-width="1"/>
    <path id="Path_69041" data-name="Path 69041" d="M260.535,11.3h-5.8a1.16,1.16,0,0,0,0,2.32h5.8" transform="translate(611.753 2357.237)" fill="none" stroke="#246bfd" stroke-miterlimit="10" stroke-width="1"/>
    <path id="Path_69042" data-name="Path 69042" d="M261.951,16.456H257.31a1.16,1.16,0,0,0,0,2.32h4.641" transform="translate(610.337 2354.406)" fill="none" stroke="#246bfd" stroke-miterlimit="10" stroke-width="1"/>
    <path id="Path_69043" data-name="Path 69043" d="M269.934,20.193h-2.32a1.16,1.16,0,1,0,0,2.32H270.4a3.6,3.6,0,0,0,2.263-.812l3.074-2.669a2.763,2.763,0,0,1,1.973.812l1.218,1.218" transform="translate(604.674 2352.989)" fill="none" stroke="#246bfd" stroke-miterlimit="10" stroke-width="1"/>
    <path id="Path_69044" data-name="Path 69044" d="M274.182,78.026h4.061a1.16,1.16,0,0,0,0-2.32H276.5" transform="translate(600.427 2321.842)" fill="none" stroke="#246bfd" stroke-miterlimit="10" stroke-width="1"/>
    <path id="Path_69045" data-name="Path 69045" d="M279.334,72.874h4.641a1.16,1.16,0,0,0,0-2.32h-4.641" transform="translate(597.595 2324.673)" fill="none" stroke="#246bfd" stroke-miterlimit="10" stroke-width="1"/>
    <path id="Path_69046" data-name="Path 69046" d="M279.334,67.722h5.8a1.16,1.16,0,0,0,0-2.32h-5.8" transform="translate(597.595 2327.505)" fill="none" stroke="#246bfd" stroke-miterlimit="10" stroke-width="1"/>
    <path id="Path_69047" data-name="Path 69047" d="M279.334,62.57h4.641a1.16,1.16,0,0,0,0-2.32h-4.641" transform="translate(597.595 2330.336)" fill="none" stroke="#246bfd" stroke-miterlimit="10" stroke-width="1"/>
    <path id="Path_69048" data-name="Path 69048" d="M263.067,57.418h2.32a1.16,1.16,0,1,0,0-2.32H262.6a3.6,3.6,0,0,0-2.263.812l-3.075,2.669a2.761,2.761,0,0,1-1.972-.813l-1.335-1.334" transform="translate(611.541 2333.168)" fill="none" stroke="#246bfd" stroke-miterlimit="10" stroke-width="1"/>
    <path id="Path_69049" data-name="Path 69049" d="M311.28,34.558V30.5a1.16,1.16,0,1,0-2.32,0v1.74" transform="translate(581.312 2347.326)" fill="none" stroke="#246bfd" stroke-miterlimit="10" stroke-width="1"/>
    <path id="Path_69050" data-name="Path 69050" d="M306.127,28.7V24.057a1.16,1.16,0,1,0-2.32,0V28.7" transform="translate(584.145 2350.865)" fill="none" stroke="#246bfd" stroke-miterlimit="10" stroke-width="1"/>
    <path id="Path_69051" data-name="Path 69051" d="M300.975,27.282v-5.8a1.16,1.16,0,0,0-2.32,0v5.8" transform="translate(586.976 2352.281)" fill="none" stroke="#246bfd" stroke-miterlimit="10" stroke-width="1"/>
    <path id="Path_69052" data-name="Path 69052" d="M295.823,28.7V24.057a1.16,1.16,0,1,0-2.32,0V28.7" transform="translate(589.808 2350.865)" fill="none" stroke="#246bfd" stroke-miterlimit="10" stroke-width="1"/>
    <path id="Path_69053" data-name="Path 69053" d="M290.67,36.682v-2.32a1.16,1.16,0,0,0-2.32,0v2.784a3.605,3.605,0,0,0,.812,2.263l2.669,3.074a2.76,2.76,0,0,1-.812,1.973L289.974,45.5" transform="translate(592.64 2345.202)" fill="none" stroke="#246bfd" stroke-miterlimit="10" stroke-width="1"/>
    <path id="Path_69054" data-name="Path 69054" d="M234.252,40.929V44.99a1.16,1.16,0,1,0,2.32,0v-1.74" transform="translate(622.372 2340.955)" fill="none" stroke="#246bfd" stroke-miterlimit="10" stroke-width="1"/>
    <path id="Path_69055" data-name="Path 69055" d="M239.4,46.081v4.641a1.16,1.16,0,1,0,2.32,0V46.081" transform="translate(619.541 2338.124)" fill="none" stroke="#246bfd" stroke-miterlimit="10" stroke-width="1"/>
    <path id="Path_69056" data-name="Path 69056" d="M244.557,46.081v5.8a1.16,1.16,0,0,0,2.32,0v-5.8" transform="translate(616.708 2338.124)" fill="none" stroke="#246bfd" stroke-miterlimit="10" stroke-width="1"/>
    <path id="Path_69057" data-name="Path 69057" d="M249.709,46.081v4.641a1.16,1.16,0,1,0,2.32,0V46.081" transform="translate(613.877 2338.124)" fill="none" stroke="#246bfd" stroke-miterlimit="10" stroke-width="1"/>
    <path id="Path_69058" data-name="Path 69058" d="M253.445,29.957v2.32a1.16,1.16,0,1,0,2.32,0V29.493a3.605,3.605,0,0,0-.812-2.263l-2.669-3.074a2.761,2.761,0,0,1,.812-1.973l1.218-1.218" transform="translate(612.461 2351.927)" fill="none" stroke="#246bfd" stroke-miterlimit="10" stroke-width="1"/>
  </g>
</svg>
