<svg xmlns="http://www.w3.org/2000/svg" width="37.112" height="37.11" viewBox="0 0 37.112 37.11">
  <path id="Path_69031" data-name="Path 69031" d="M28.855,23.179a9.6,9.6,0,1,0-10.8,14.073,9.651,9.651,0,0,0,2.5.331,9.6,9.6,0,0,0,8.3-14.4m.066,7.046a8.676,8.676,0,1,1-.867-6.584,8.619,8.619,0,0,1,.867,6.584m7.6,9.7-3.556-3.556a2.016,2.016,0,0,0-1.436-.593,2.046,2.046,0,0,0-.611.093l-1.07-1.07a11.524,11.524,0,0,0-4.131-17.119V11.187a2.433,2.433,0,0,0-2.431-2.43H2.431A2.433,2.433,0,0,0,0,11.187v32.25a2.433,2.433,0,0,0,2.431,2.43H23.283a2.433,2.433,0,0,0,2.431-2.43V38.286c.2-.1.4-.206.594-.319a11.476,11.476,0,0,0,1.049-.685l1.07,1.07a2.032,2.032,0,0,0,.5,2.047l3.556,3.557a2.033,2.033,0,0,0,2.872,0l1.164-1.164a2.034,2.034,0,0,0,0-2.872M24.789,43.437a1.509,1.509,0,0,1-1.507,1.507H2.431A1.509,1.509,0,0,1,.924,43.437V11.187A1.509,1.509,0,0,1,2.431,9.681H23.283a1.508,1.508,0,0,1,1.507,1.506v6.075a11.529,11.529,0,1,0-4.23,22.254,11.4,11.4,0,0,0,4.23-.815Zm1.056-6.27a10.609,10.609,0,1,1,3.884-14.492,10.54,10.54,0,0,1-3.884,14.492m2.239-.463a11.426,11.426,0,0,0,1.181-1.182l.833.833-.009.009-1.164,1.163-.009.009Zm7.78,5.436L34.7,43.3a1.109,1.109,0,0,1-1.566,0l-3.556-3.556a1.109,1.109,0,0,1,0-1.565l1.164-1.164a1.109,1.109,0,0,1,1.565,0l3.556,3.556a1.108,1.108,0,0,1,0,1.566M20.541,23.556a8.415,8.415,0,0,0-7.262,4.192.459.459,0,0,0,0,.463,8.387,8.387,0,0,0,14.524,0,.461.461,0,0,0,0-.463,8.416,8.416,0,0,0-7.262-4.192m0,7.451a3.028,3.028,0,1,1,3.029-3.028,3.032,3.032,0,0,1-3.029,3.028m-6.323-3.028a7.5,7.5,0,0,1,3.835-3.068,3.946,3.946,0,0,0,0,6.136,7.5,7.5,0,0,1-3.835-3.068m8.811,3.068a3.947,3.947,0,0,0,0-6.136,7.492,7.492,0,0,1,3.834,3.068,7.489,7.489,0,0,1-3.834,3.068M6.662,13.536a.462.462,0,0,1,.462-.462H18.59a.462.462,0,0,1,0,.924H7.124a.462.462,0,0,1-.462-.462M3.418,20.244a.462.462,0,0,1,.462-.462H9.87a.462.462,0,1,1,0,.924H3.88a.462.462,0,0,1-.462-.462m0,3.465a.462.462,0,0,1,.462-.462h4.2a.462.462,0,0,1,0,.924H3.88a.462.462,0,0,1-.462-.462m0,3.465a.462.462,0,0,1,.462-.462H7.389a.462.462,0,1,1,0,.924H3.88a.462.462,0,0,1-.462-.462m0,3.464a.462.462,0,0,1,.462-.462H7.633a.462.462,0,1,1,0,.924H3.88a.462.462,0,0,1-.462-.462m0,3.466a.462.462,0,0,1,.462-.462h5a.462.462,0,1,1,0,.924h-5a.462.462,0,0,1-.462-.462m0,3.465a.462.462,0,0,1,.462-.462h7.561a.462.462,0,1,1,0,.924H3.88a.462.462,0,0,1-.462-.462m.462,3H21.743a.462.462,0,0,1,0,.924H3.88a.462.462,0,0,1,0-.924M3.418,16.779a.462.462,0,0,1,.462-.462H11.5a.462.462,0,1,1,0,.924H3.88a.462.462,0,0,1-.462-.462" transform="translate(0 -8.757)" fill="#246bfd"/>
</svg>
