<svg xmlns="http://www.w3.org/2000/svg" width="57.01" height="63.155" viewBox="0 0 57.01 63.155"><defs><clipPath id="a"><path fill="#3955a2" d="M0 0h57.01v63.155H0z"/></clipPath></defs><g fill="#3955a2" clip-path="url(#a)"><path d="M51.041 3.918H24.404a1.025 1.025 0 0 0 0 2.051h18.442A3.074 3.074 0 0 1 45.92 9.04v48.149a3.074 3.074 0 0 1-3.074 3.069H30.553a1.025 1.025 0 0 0 0 2.051h12.293a5.134 5.134 0 0 0 5.02-4.1h1.125a3.074 3.074 0 0 0 3.071-3.068V11.09a1.024 1.024 0 0 0-2.047 0v44.051a1.026 1.026 0 0 1-1.027 1.024h-1.021V9.039a5.05 5.05 0 0 0-1.051-3.071h4.125a3.074 3.074 0 0 1 3.074 3.071v48.15a3.074 3.074 0 0 1-3.074 3.069h-1.023a1.025 1.025 0 1 0 0 2.051h1.024a5.13 5.13 0 0 0 5.12-5.12V9.039a5.127 5.127 0 0 0-5.121-5.121"/><path stroke="#fff" stroke-miterlimit="10" stroke-width=".5" d="M51.041 3.918H24.404a1.025 1.025 0 0 0 0 2.051h18.442A3.074 3.074 0 0 1 45.92 9.04v48.149a3.074 3.074 0 0 1-3.074 3.069H30.553a1.025 1.025 0 0 0 0 2.051h12.293a5.134 5.134 0 0 0 5.02-4.1h1.125a3.074 3.074 0 0 0 3.071-3.068V11.09a1.024 1.024 0 0 0-2.047 0v44.051a1.026 1.026 0 0 1-1.027 1.024h-1.021V9.039a5.05 5.05 0 0 0-1.051-3.071h4.125a3.074 3.074 0 0 1 3.074 3.071v48.15a3.074 3.074 0 0 1-3.074 3.069h-1.023a1.025 1.025 0 1 0 0 2.051h1.024a5.13 5.13 0 0 0 5.12-5.12V9.039a5.127 5.127 0 0 0-5.121-5.121Z"/><path d="M36.65 31.17a1.03 1.03 0 0 0-.828-.7l-7.253-1.054-3.239-6.573a1.06 1.06 0 0 0-1.834 0l-3.251 6.568-7.253 1.056a1.025 1.025 0 0 0-.564 1.75l5.25 5.115-1.248 7.226a1.025 1.025 0 0 0 1.49 1.078l6.479-3.409 6.489 3.409a1.025 1.025 0 0 0 1.486-1.078l-1.24-7.226 5.253-5.115a1.03 1.03 0 0 0 .257-1.047m-7.314 5.07a1.01 1.01 0 0 0-.3.905l.98 5.709-5.125-2.692a1.01 1.01 0 0 0-.953 0l-5.118 2.692.98-5.709a1.05 1.05 0 0 0-.294-.905l-4.16-4.047 5.736-.834a1.01 1.01 0 0 0 .77-.561l2.558-5.187 2.567 5.2a1.02 1.02 0 0 0 .767.561l5.736.831Z"/><path stroke="#fff" stroke-miterlimit="10" stroke-width=".5" d="M36.65 31.17a1.03 1.03 0 0 0-.828-.7l-7.253-1.054-3.239-6.573a1.06 1.06 0 0 0-1.834 0l-3.251 6.568-7.253 1.056a1.025 1.025 0 0 0-.564 1.75l5.25 5.115-1.248 7.226a1.025 1.025 0 0 0 1.49 1.078l6.479-3.409 6.489 3.409a1.025 1.025 0 0 0 1.486-1.078l-1.24-7.226 5.253-5.115a1.03 1.03 0 0 0 .263-1.047Zm-7.32 5.07a1.01 1.01 0 0 0-.3.905l.98 5.709-5.125-2.692a1.01 1.01 0 0 0-.953 0l-5.118 2.692.98-5.709a1.05 1.05 0 0 0-.294-.905l-4.16-4.047 5.736-.834a1.01 1.01 0 0 0 .77-.561l2.558-5.187 2.567 5.2a1.02 1.02 0 0 0 .767.561l5.736.831Z"/><path d="M26.455 60.263H5.966a3.07 3.07 0 0 1-3.071-3.074V9.039a3.074 3.074 0 0 1 3.071-3.074H6.99v3.074a1.025 1.025 0 0 0 2.051 0V3.918a1.02 1.02 0 0 1 1.023-1.024h8.2a1.023 1.023 0 0 1 1.024 1.024v14.476l-4.554-3.034a1.02 1.02 0 0 0-1.135 0L9.04 18.394v-5.257a1.025 1.025 0 0 0-2.051 0v7.172a1.025 1.025 0 0 0 1.024 1.024 1 1 0 0 0 .571-.172l5.577-3.719 5.577 3.719a1.025 1.025 0 0 0 1.595-.851V3.918A3.074 3.074 0 0 0 18.26.844h-8.2a3.07 3.07 0 0 0-3.07 3.074H5.966A5.127 5.127 0 0 0 .845 9.039v48.15a5.13 5.13 0 0 0 5.121 5.125h20.489a1.025 1.025 0 0 0 0-2.051"/><path stroke="#fff" stroke-miterlimit="10" stroke-width=".5" d="M26.455 60.263H5.966a3.07 3.07 0 0 1-3.071-3.074V9.039a3.074 3.074 0 0 1 3.071-3.074H6.99v3.074a1.025 1.025 0 0 0 2.051 0V3.918a1.02 1.02 0 0 1 1.023-1.024h8.2a1.023 1.023 0 0 1 1.024 1.024v14.476l-4.554-3.034a1.02 1.02 0 0 0-1.135 0L9.04 18.394v-5.257a1.025 1.025 0 0 0-2.051 0v7.172a1.025 1.025 0 0 0 1.024 1.024 1 1 0 0 0 .571-.172l5.577-3.719 5.577 3.719a1.025 1.025 0 0 0 1.595-.851V3.918A3.074 3.074 0 0 0 18.26.844h-8.2a3.07 3.07 0 0 0-3.07 3.074H5.966A5.127 5.127 0 0 0 .845 9.039v48.15a5.13 5.13 0 0 0 5.121 5.125h20.489a1.025 1.025 0 0 0 0-2.051Z"/></g></svg>