<svg xmlns="http://www.w3.org/2000/svg" width="70.295" height="56.231" viewBox="0 0 70.295 56.231"><g fill="#3955a2" transform="translate(-997.968 -2060.811)"><path d="M1010.858 2086.583h-1.176a1.172 1.172 0 1 0 0 2.343h1.172a1.172 1.172 0 1 0 0-2.343m1.177 7.031a1.17 1.17 0 0 0-1.172-1.172h-4.687a1.172 1.172 0 0 0 0 2.343h4.687a1.17 1.17 0 0 0 1.172-1.172m-2.344 5.857a1.17 1.17 0 0 0 1.172 1.172h2.343a1.172 1.172 0 1 0 0-2.343h-2.343a1.17 1.17 0 0 0-1.172 1.172m42.173-26.946a1.172 1.172 0 0 0 0-2.343h-16.406a1.172 1.172 0 0 0 0 2.343Zm4.687 3.515h-29.287a1.172 1.172 0 0 0 0 2.343h29.287a1.172 1.172 0 1 0 0-2.343m1.171 7.029a1.17 1.17 0 0 0-1.172-1.172h-29.286a1.172 1.172 0 0 0 0 2.343h29.287a1.17 1.17 0 0 0 1.172-1.172m-26.944 4.687a1.172 1.172 0 1 0 0 2.343h21.088a1.172 1.172 0 0 0 0-2.343Z"/><path d="M1067.089 2086.583a1.17 1.17 0 0 0-1.172 1.172v4.687a5.863 5.863 0 0 1-5.858 5.856h-4.684a1.17 1.17 0 0 0-1.17 1.171v13.165l-11.6-13.914a1.18 1.18 0 0 0-.9-.422h-19.132a5.863 5.863 0 0 1-5.858-5.856v-17.573a1.172 1.172 0 0 0-2.343 0v17.572a8.21 8.21 0 0 0 8.2 8.2h9.9a12.91 12.91 0 0 1-9.9 4.687h-3.515a1.18 1.18 0 0 0-.829.342l-7.372 7.372v-7a1.17 1.17 0 0 0-.877-1.135 12.869 12.869 0 0 1 1.072-25.155 1.172 1.172 0 1 0-.39-2.311 15.212 15.212 0 0 0-2.148 29.48v8.948a1.173 1.173 0 0 0 2 .829l9.03-9.029h3.03a15.28 15.28 0 0 0 12.81-7.03h5.774l13.317 15.98a1.17 1.17 0 0 0 .9.422 1.2 1.2 0 0 0 .4-.069 1.17 1.17 0 0 0 .773-1.1v-15.231h3.513a8.21 8.21 0 0 0 8.2-8.2v-4.686a1.17 1.17 0 0 0-1.172-1.172m-7.026-25.772h-37.489a8.21 8.21 0 0 0-8.2 8.2v1.169a1.172 1.172 0 0 0 2.343 0v-1.167a5.863 5.863 0 0 1 5.856-5.858h37.489a5.866 5.866 0 0 1 5.858 5.858v14.057a1.172 1.172 0 1 0 2.343 0v-14.057a8.21 8.21 0 0 0-8.2-8.2"/><path d="M1062.405 2076.041a1.17 1.17 0 0 0 1.172-1.172v-5.858a3.514 3.514 0 0 0-3.519-3.513h-37.485a3.51 3.51 0 0 0-3.515 3.513v23.431a3.514 3.514 0 0 0 3.513 3.515h37.487a3.516 3.516 0 0 0 3.515-3.515v-12.886a1.172 1.172 0 0 0-2.343 0v12.886a1.17 1.17 0 0 1-1.172 1.172h-37.485a1.17 1.17 0 0 1-1.172-1.172v-23.431a1.174 1.174 0 0 1 1.172-1.172h37.485a1.17 1.17 0 0 1 1.172 1.172v5.858a1.17 1.17 0 0 0 1.172 1.172"/></g></svg>