<svg xmlns="http://www.w3.org/2000/svg" width="51.603" height="42.863" viewBox="0 0 51.603 42.863">
  <g id="Group_59752" data-name="Group 59752" transform="translate(0)">
    <path id="Path_69021" data-name="Path 69021" d="M280.753,14.978h-.86a.894.894,0,0,0,0,1.786h.86a.894.894,0,0,0,0-1.786" transform="translate(-271.29 4.667)" fill="#246bfd"/>
    <path id="Path_69022" data-name="Path 69022" d="M282.571,18.576a.877.877,0,0,0-.86-.893h-3.44a.894.894,0,0,0,0,1.786h3.44a.877.877,0,0,0,.86-.893" transform="translate(-272.247 6.428)" fill="#246bfd"/>
    <path id="Path_69023" data-name="Path 69023" d="M279.574,21.28a.877.877,0,0,0,.86.893h1.72a.894.894,0,0,0,0-1.786h-1.72a.877.877,0,0,0-.86.893" transform="translate(-270.971 8.188)" fill="#246bfd"/>
    <path id="Path_69024" data-name="Path 69024" d="M303.833,9.191a.894.894,0,0,0,0-1.786h-12.04a.894.894,0,0,0,0,1.786Z" transform="translate(-264.271 -0.262)" fill="#246bfd"/>
    <path id="Path_69025" data-name="Path 69025" d="M309.506,10.11h-21.5a.894.894,0,0,0,0,1.786h21.5a.894.894,0,0,0,0-1.786" transform="translate(-266.505 1.499)" fill="#246bfd"/>
    <path id="Path_69026" data-name="Path 69026" d="M310.366,13.707a.877.877,0,0,0-.86-.893h-21.5a.894.894,0,0,0,0,1.786h21.5a.877.877,0,0,0,.86-.893" transform="translate(-266.505 3.259)" fill="#246bfd"/>
    <path id="Path_69027" data-name="Path 69027" d="M289.63,15.519a.894.894,0,0,0,0,1.786h15.48a.894.894,0,0,0,0-1.786Z" transform="translate(-265.547 5.019)" fill="#246bfd"/>
    <path id="Path_69028" data-name="Path 69028" d="M324.9,18.851a.877.877,0,0,0-.86.893v3.572a4.389,4.389,0,0,1-4.3,4.464H316.3a.877.877,0,0,0-.86.893V38.709L306.931,28.1a.853.853,0,0,0-.661-.322H292.225a4.389,4.389,0,0,1-4.3-4.464V9.921a.861.861,0,1,0-1.72,0v13.4a6.144,6.144,0,0,0,6.021,6.25h7.264a9.345,9.345,0,0,1-7.264,3.572h-2.58a.848.848,0,0,0-.609.261l-5.412,5.62V33.68a.889.889,0,0,0-.644-.865,9.844,9.844,0,0,1-6.8-11.944,9.594,9.594,0,0,1,7.583-7.231.89.89,0,0,0,.706-1.028.865.865,0,0,0-.992-.733,11.557,11.557,0,0,0-9.162,13.355,11.475,11.475,0,0,0,7.585,9.116v6.825a.878.878,0,0,0,.86.893.848.848,0,0,0,.609-.261L290,34.925h2.224a11.122,11.122,0,0,0,9.4-5.359h4.238l9.776,12.18a.839.839,0,0,0,.954.269.894.894,0,0,0,.568-.84V29.566h2.579a6.144,6.144,0,0,0,6.021-6.25V19.744a.877.877,0,0,0-.86-.893" transform="translate(-274.163 0.795)" fill="#246bfd"/>
    <path id="Path_69029" data-name="Path 69029" d="M315.277,3.078h-27.52a6.144,6.144,0,0,0-6.019,6.252v.891a.861.861,0,1,0,1.72,0V9.33a4.389,4.389,0,0,1,4.3-4.466h27.52a4.391,4.391,0,0,1,4.3,4.466V20.046a.861.861,0,1,0,1.72,0V9.33a6.147,6.147,0,0,0-6.021-6.252" transform="translate(-269.695 -3.078)" fill="#246bfd"/>
    <path id="Path_69030" data-name="Path 69030" d="M315.721,13.278a.877.877,0,0,0,.86-.893V7.92A2.63,2.63,0,0,0,314,5.242h-27.52A2.629,2.629,0,0,0,283.9,7.92V25.78a2.631,2.631,0,0,0,2.579,2.679H314a2.632,2.632,0,0,0,2.58-2.679V15.958a.861.861,0,1,0-1.72,0V25.78a.877.877,0,0,1-.86.893h-27.52a.878.878,0,0,1-.86-.893V7.92a.879.879,0,0,1,.86-.893H314a.878.878,0,0,1,.86.893v4.466a.877.877,0,0,0,.86.893" transform="translate(-268.419 -1.67)" fill="#246bfd"/>
  </g>
</svg>
