<svg xmlns="http://www.w3.org/2000/svg" width="35.275" height="35.196" viewBox="0 0 35.275 35.196">
  <path id="Path_69034" data-name="Path 69034" d="M745.887,18.879h3.066a.533.533,0,0,1,.534.531.458.458,0,0,1,0,.05v5.491h.141a1.882,1.882,0,0,1,1-.3,1.825,1.825,0,0,1,1.83,1.821v.007a1.829,1.829,0,0,1-2.823,1.532h-.148v4.154a1.917,1.917,0,0,1-1.914,1.915h-4.687a.533.533,0,0,1-.532-.532V32.7c0-.362.294-.364.294-.825a.76.76,0,1,0-1.345.484.535.535,0,0,1,.121.379v.808a.533.533,0,0,1-.532.533H729.275v.143a1.875,1.875,0,0,1,.3,1,1.829,1.829,0,1,1-3.355-1v-.14h-4.157a1.917,1.917,0,0,1-1.914-1.918V27.478a.533.533,0,0,1,.534-.529h.847a.529.529,0,0,1,.34.122.763.763,0,1,0,.005-1.176.528.528,0,0,1-.341.123h-.852a.534.534,0,0,1-.534-.534V13.877h-.141a1.876,1.876,0,0,1-1,.294,1.826,1.826,0,0,1-1.83-1.821v0a1.832,1.832,0,0,1,2.826-1.532h.141V6.658a1.911,1.911,0,0,1,1.911-1.911h4.694a.532.532,0,0,1,.532.532v.846a.532.532,0,0,1-.122.34.76.76,0,1,0,1.176,0,.533.533,0,0,1-.121-.379V5.277a.532.532,0,0,1,.532-.532h6.068a.532.532,0,0,1,.534.531.37.37,0,0,1,0,.05V8.339l1.431-1.418a.533.533,0,0,1,.753,0l.588.588c.251.251.051.462.367.776a.735.735,0,1,0,.588-1.249.538.538,0,0,1-.327-.154l-.587-.588a.534.534,0,0,1,0-.755L741.2,2.491a2.171,2.171,0,0,1,3.066,0l2.666,2.667.089-.087a1.8,1.8,0,1,1,3.029,1.648,1.826,1.826,0,0,1-.9.486l-.083.09,2.666,2.667a2.173,2.173,0,0,1,0,3.066l-3.048,3.046a.535.535,0,0,1-.756,0l-.588-.588c-.251-.251-.052-.462-.368-.775a.731.731,0,1,0-.588,1.244.532.532,0,0,1,.327.154l.588.588a.534.534,0,0,1,0,.755l-1.427,1.427Zm-3.217.436V13.876a19.524,19.524,0,0,1-7.852-3.574,19.507,19.507,0,0,1-7.85,3.573v5.308a9.248,9.248,0,0,0,2.245,5.866,11.632,11.632,0,0,0,5.605,3.691,11.762,11.762,0,0,0,5.59-3.674,9.035,9.035,0,0,0,2.26-5.752ZM725.9,18.881V13.443a.535.535,0,0,1,.462-.529,21.544,21.544,0,0,0,4.493-1.451,16,16,0,0,0,3.432-2.106V5.812h-5.005v.137a1.886,1.886,0,0,1,.3,1,1.828,1.828,0,1,1-3.548-.618,1.869,1.869,0,0,1,.19-.382V5.81h-4.158a.853.853,0,0,0-.846.848v4.69a.535.535,0,0,1-.533.536h-.849c-.359,0-.367-.294-.824-.294a.759.759,0,0,0-.76.758h0a.765.765,0,0,0,1.23.6.536.536,0,0,1,.356-.136h.845a.534.534,0,0,1,.534.535v5.538Zm8.385,10.811c-4.309-1.366-7.973-5.2-8.352-9.746h-4.715v5h.141a1.884,1.884,0,0,1,1-.294,1.826,1.826,0,1,1-.617,3.544,1.891,1.891,0,0,1-.383-.189h-.14v4.158a.849.849,0,0,0,.846.846h4.69a.533.533,0,0,1,.533.532v.808c.014.413-.294.387-.294.863a.76.76,0,1,0,1.347-.478.534.534,0,0,1-.122-.34v-.85a.533.533,0,0,1,.533-.533h5.536V29.692Zm9.43-9.744c-.333,4.516-4.1,8.39-8.362,9.744v3.325h5v-.14a1.882,1.882,0,0,1-.3-1,1.828,1.828,0,1,1,3.548.618,1.888,1.888,0,0,1-.187.379v.143h4.155a.849.849,0,0,0,.846-.849v-4.69a.535.535,0,0,1,.535-.534h.847c.361,0,.367.294.825.294a.762.762,0,1,0-.487-1.348.529.529,0,0,1-.34.122h-.845a.532.532,0,0,1-.532-.532V19.948Zm.021-6.473v5.4h.642l1.8-1.8-.088-.088a1.814,1.814,0,0,1-.9-.486,1.8,1.8,0,0,1,2.545-2.546,1.821,1.821,0,0,1,.486.9l.088.088,2.669-2.667a1.1,1.1,0,0,0,0-1.555l-3.046-3.045a.534.534,0,0,1,0-.755l.588-.588c.249-.25.463-.056.774-.368a.731.731,0,1,0-1.24-.619.53.53,0,0,1-.156.36l-.588.588a.534.534,0,0,1-.755,0l-3.046-3.042a1.1,1.1,0,0,0-1.555,0l-2.666,2.666.087.088A1.8,1.8,0,0,1,739,9.562a1.8,1.8,0,0,1-1.762-1.426l-.091-.09-1.536,1.523a18.766,18.766,0,0,0,7.693,3.353.534.534,0,0,1,.424.551Zm-4.161,10.55a7.566,7.566,0,0,0,1.788-4.71V15.3a.532.532,0,0,0-.386-.514,20.676,20.676,0,0,1-5.861-2.656.532.532,0,0,0-.6.006,20.7,20.7,0,0,1-5.851,2.65.534.534,0,0,0-.388.514v3.88c0,3.743,3.013,6.908,6.361,8.121a.533.533,0,0,0,.363,0,10.727,10.727,0,0,0,4.576-3.279Zm-4.756,2.208c2.756-1.078,5.478-3.785,5.478-6.918V15.705a21.794,21.794,0,0,1-5.478-2.488,22.1,22.1,0,0,1-5.476,2.488v3.481c0,3.214,2.623,5.944,5.473,7.051Zm2.737-8.86-3.238,3.237a.535.535,0,0,1-.756,0l-1.477-1.476a.447.447,0,0,0-.632.631l2.287,2.288a.284.284,0,0,0,.4,0L738.187,18a.447.447,0,0,0-.634-.632Zm-3.619,2.1-1.1-1.1a1.516,1.516,0,0,0-2.144,2.145l2.291,2.289a1.353,1.353,0,0,0,1.911,0l4.047-4.049a1.515,1.515,0,0,0-2.143-2.143Z" transform="translate(-717.18 -1.857)" fill="#246bfd" fill-rule="evenodd"/>
</svg>
