<svg xmlns="http://www.w3.org/2000/svg" width="33.428" height="35.591" viewBox="0 0 33.428 35.591">
  <path id="Path_69032" data-name="Path 69032" d="M510.583,43.267V36.94l.328-.1a.593.593,0,0,0,.427-.569V31.165a.981.981,0,0,0-.981-.981H506.1V28.962a1.423,1.423,0,0,0-.28-.843,1.105,1.105,0,0,1,.688-.248,2.335,2.335,0,0,0,2.337-2.332V23.693a2.344,2.344,0,0,0-2.337-2.344,1.17,1.17,0,0,1-1.1-.809A12.723,12.723,0,0,0,504.761,19a1.175,1.175,0,0,1,.194-1.355,2.323,2.323,0,0,0,0-3.314l-1.3-1.3A2.328,2.328,0,0,0,502,12.34H502a2.3,2.3,0,0,0-1.644.688,1.207,1.207,0,0,1-1.356.2,12.635,12.635,0,0,0-1.55-.647,1.171,1.171,0,0,1-.809-1.1A2.336,2.336,0,0,0,494.3,9.146h-1.851a2.339,2.339,0,0,0-2.334,2.337,1.159,1.159,0,0,1-.82,1.1,13.231,13.231,0,0,0-1.535.643,1.166,1.166,0,0,1-1.36-.2,2.319,2.319,0,0,0-1.655-.684,2.291,2.291,0,0,0-1.652.683l-1.312,1.3a2.35,2.35,0,0,0,0,3.3,1.131,1.131,0,0,1,.337.805,1.239,1.239,0,0,1-.136.55,11.531,11.531,0,0,0-.64,1.55,1.171,1.171,0,0,1-1.1.809,2.334,2.334,0,0,0-2.337,2.332v1.854a2.339,2.339,0,0,0,2.337,2.337,1.156,1.156,0,0,1,1.1.813,11.972,11.972,0,0,0,.641,1.547,1.164,1.164,0,0,1-.205,1.36,2.38,2.38,0,0,0-.677,1.648,2.35,2.35,0,0,0,.684,1.651L483.1,36.2a2.346,2.346,0,0,0,3.3,0,1.166,1.166,0,0,1,1.356-.2,11.832,11.832,0,0,0,1.545.641,1.155,1.155,0,0,1,.817,1.1,2.336,2.336,0,0,0,2.334,2.337h.631v3.192a1.473,1.473,0,0,0,1.47,1.471h14.561a1.472,1.472,0,0,0,1.469-1.471m-.431-7.437-5.911,1.745v-.644a.93.93,0,0,0-.928-.928H500.05a.929.929,0,0,0-.928.928v.558l-5.189-1.531a.575.575,0,0,0-.089-.034l-.334-.1V31.371h16.643Zm-9.841,2.391V37.19h2.743V39.6h-2.741Zm.356-10.692h-1.661a1.435,1.435,0,0,0-1.433,1.433v1.222H493.3a.981.981,0,0,0-.98.981v1.242a7.892,7.892,0,1,1,8.342-4.878Zm-1.908,2.656V28.962a.247.247,0,0,1,.247-.247h5.658a.247.247,0,0,1,.247.247v1.222Zm-6.307,8.7a1.149,1.149,0,0,1-1.148-1.149v0a2.357,2.357,0,0,0-1.623-2.222,10.716,10.716,0,0,1-1.392-.577,2.373,2.373,0,0,0-2.723.421,1.157,1.157,0,0,1-1.63,0l-1.305-1.3a1.154,1.154,0,0,1-.007-1.63,2.342,2.342,0,0,0,.426-2.729,10.7,10.7,0,0,1-.577-1.394,2.356,2.356,0,0,0-2.221-1.621,1.151,1.151,0,0,1-1.15-1.15V23.693a1.19,1.19,0,0,1,.336-.821,1.157,1.157,0,0,1,.814-.336,2.361,2.361,0,0,0,2.223-1.619,10.467,10.467,0,0,1,.575-1.4,2.419,2.419,0,0,0,.262-1.081,2.313,2.313,0,0,0-.687-1.642,1.158,1.158,0,0,1,0-1.626l1.315-1.305a1.18,1.18,0,0,1,1.623.005,2.373,2.373,0,0,0,2.724.422,12.077,12.077,0,0,1,1.394-.585,2.356,2.356,0,0,0,1.622-2.227,1.152,1.152,0,0,1,1.148-1.15H494.3a1.149,1.149,0,0,1,1.15,1.148v0a2.357,2.357,0,0,0,1.611,2.22,11.493,11.493,0,0,1,1.4.586,2.411,2.411,0,0,0,2.729-.425,1.127,1.127,0,0,1,.806-.338,1.2,1.2,0,0,1,.819.34l1.305,1.3a1.157,1.157,0,0,1,.344.813,1.126,1.126,0,0,1-.353.817,2.383,2.383,0,0,0-.42,2.723,11.429,11.429,0,0,1,.586,1.4,2.357,2.357,0,0,0,2.221,1.613,1.155,1.155,0,0,1,1.15,1.158v1.842a1.158,1.158,0,0,1-.332.809,1.17,1.17,0,0,1-.819.341,2.323,2.323,0,0,0-1.783.849c-.02,0-.038-.006-.06-.006h-2.722a9.05,9.05,0,1,0-9.615,6.07v2.675a.592.592,0,0,0,.428.569l.329.1v1.949Zm1.818,4.378V37.294l4.858,1.431v1.132a.929.929,0,0,0,.928.927h3.263a.927.927,0,0,0,.927-.927V38.812L509.4,37.29v5.976a.285.285,0,0,1-.284.284H494.553a.285.285,0,0,1-.283-.284" transform="translate(-477.91 -9.146)" fill="#246bfd"/>
</svg>
