<svg xmlns="http://www.w3.org/2000/svg" xmlns:xlink="http://www.w3.org/1999/xlink" width="49.078" height="49.74" viewBox="0 0 49.078 49.74">
  <defs>
    <clipPath id="clip-path">
      <rect id="Rectangle_1134" data-name="Rectangle 1134" width="49.078" height="49.74" fill="#246bfd"/>
    </clipPath>
  </defs>
  <g id="Group_2068" data-name="Group 2068" clip-path="url(#clip-path)">
    <path id="Path_59679" data-name="Path 59679" d="M131.047,294.685c2.954-1.664,5.741-3.261,8.553-4.812,2.779-1.533,5.553-.89,6.93,1.557,1.331,2.367.514,4.96-2.154,6.625-5.4,3.367-10.82,6.693-16.218,10.057a6.871,6.871,0,0,1-6.288.627c-3.724-1.354-7.456-2.691-11.13-4.171-.635-.256-1-1.187-1.485-1.806.776-.172,1.665-.678,2.31-.461,3.5,1.176,6.946,2.493,10.383,3.837a5.536,5.536,0,0,0,5.432-.492c5.126-3.282,10.376-6.372,15.484-9.682a3.836,3.836,0,0,0,1.576-2.716c.009-1.551-1.849-2.144-3.478-1.249-3.116,1.713-6.145,3.6-9.332,5.163a14.552,14.552,0,0,1-5.03,1.326,50.219,50.219,0,0,1-7.39,0c-.757-.044-1.478-.726-2.215-1.116.715-.435,1.4-1.187,2.148-1.245,2.179-.17,4.38-.084,6.572-.057,1.431.018,2.523-.5,2.552-2.021.031-1.621-1.071-2.194-2.6-2.186-4.453.025-8.907.058-13.357-.045-.679-.016-1.847-.668-1.914-1.148-.192-1.366,1-1.309,1.985-1.308q6.165.01,12.331,0c4.236,0,5.391.931,6.339,5.319" transform="translate(-98.079 -259.481)" fill="#246bfd"/>
    <path id="Path_59680" data-name="Path 59680" d="M133.9,26.155c.322-1.9.52-3.89,1.025-5.8a3.559,3.559,0,0,0-1.323-4.107,40.206,40.206,0,0,1-3.958-3.879c-.405-.443-.819-1.323-.636-1.749a2.527,2.527,0,0,1,1.65-1.215c2.077-.408,4.214-.519,6.279-.97a3.628,3.628,0,0,0,2.112-1.49c1.026-1.688,1.733-3.567,2.707-5.29.4-.7,1.139-1.635,1.753-1.656.594-.021,1.411.889,1.8,1.576,1.01,1.778,1.751,3.71,2.789,5.47a3.314,3.314,0,0,0,1.967,1.386c2.07.434,4.2.563,6.282.958a2.5,2.5,0,0,1,1.729,1.12,2.43,2.43,0,0,1-.688,1.917c-1.433,1.562-3.079,2.932-4.469,4.528a3.648,3.648,0,0,0-.828,2.468c.2,2.1.742,4.169,1.029,6.266.083.607-.033,1.571-.421,1.831a2.467,2.467,0,0,1-2.046.1,38.772,38.772,0,0,1-5.081-2.658,3.444,3.444,0,0,0-4.12.046,47.352,47.352,0,0,1-5.069,2.69c-1.5.707-2.491.058-2.482-1.544m9.645-22.514c-1.026,2.072-1.771,3.842-2.765,5.46a3.808,3.808,0,0,1-2.1,1.568c-1.893.474-3.859.661-6.054,1,1.528,1.552,2.955,2.814,4.132,4.277a4.263,4.263,0,0,1,.876,2.675c-.108,1.924-.541,3.83-.888,6.047,2.024-1.058,3.664-2.069,5.427-2.77a4.125,4.125,0,0,1,2.788.025c1.781.706,3.445,1.706,5.41,2.716-.348-2.186-.51-4.035-.969-5.808a2.8,2.8,0,0,1,1.014-3.062c1.33-1.244,2.574-2.581,4.069-4.1-2.2-.343-4.162-.53-6.053-1a3.813,3.813,0,0,1-2.116-1.557c-1-1.618-1.737-3.391-2.768-5.479" transform="translate(-115.773 0)" fill="#246bfd"/>
    <path id="Path_59681" data-name="Path 59681" d="M7.177,290.76V274.349c-1.835,0-3.657.1-5.454-.058C1.117,274.236.573,273.5,0,273.08c.577-.408,1.128-1.116,1.736-1.168,1.833-.156,3.688-.039,5.534-.061,1.73-.021,2.5.886,2.5,2.532q.013,8.206,0,16.412a2.194,2.194,0,0,1-2.388,2.457,15.966,15.966,0,0,1-3.271-.064c-.485-.09-.851-.818-1.271-1.257.457-.39.867-1.013,1.381-1.118a15.565,15.565,0,0,1,2.955-.052" transform="translate(0 -244.026)" fill="#246bfd"/>
    <rect id="Rectangle_1133" data-name="Rectangle 1133" width="3.43" height="3.455" transform="translate(1.674 32.514)" fill="#246bfd"/>
  </g>
</svg>
