<svg xmlns="http://www.w3.org/2000/svg" xmlns:xlink="http://www.w3.org/1999/xlink" width="63.362" height="69.058" viewBox="0 0 63.362 69.058">
  <defs>
    <clipPath id="clip-path">
      <rect id="Rectangle_1132" data-name="Rectangle 1132" width="63.362" height="69.058" fill="#246bfd"/>
    </clipPath>
  </defs>
  <g id="Group_2066" data-name="Group 2066" clip-path="url(#clip-path)">
    <path id="Path_59666" data-name="Path 59666" d="M145.516,133.306a13.884,13.884,0,0,0-12.927,8.689c-1.918,4.71-1.12,11.439,3.53,15.342a10.993,10.993,0,0,1,4.121,9.475c-.055,1.224-.3,2.432-1.6,2.493-1.5.071-1.913-1.226-1.782-2.512.324-3.185-1.3-5.258-3.46-7.387-9.584-9.465-4.373-23.73,4.137-27.348,6.025-2.562,11.7-2.96,16.98.534,6.6,4.368,11.267,12.9,5.929,22.511a19.7,19.7,0,0,1-4.2,5.54,6.606,6.606,0,0,0-2.169,5.711c.072,1.327-.047,2.892-1.64,2.939-1.683.05-1.712-1.518-1.747-2.875a10.977,10.977,0,0,1,3.98-8.979,13.591,13.591,0,0,0,3.7-15.364,13.737,13.737,0,0,0-12.857-8.771" transform="translate(-113.779 -115.367)" fill="#246bfd"/>
    <path id="Path_59667" data-name="Path 59667" d="M233.317,238.185c-.125.375-.141.819-.371,1.051q-3.578,3.629-7.227,7.186a1.179,1.179,0,0,1-1.541.147q-2.489-2.35-4.813-4.872c-.388-.42-.142-1.031.24-1.51a1.492,1.492,0,0,1,1.663-.674c.336.1.608.406.943.517,1.2.4,1.388,3.082,3.208,1.705a9.93,9.93,0,0,0,2.906-2.682,6.424,6.424,0,0,1,2.415-2.2c1.287-.7,2.286-.243,2.576,1.328" transform="translate(-194.434 -209.824)" fill="#246bfd"/>
    <path id="Path_59668" data-name="Path 59668" d="M218.762,518.572c-1.933,0-3.867.013-5.8-.005a1.66,1.66,0,0,1-1.785-1.393c-.244-1.113.852-.977,1.315-1.437.7-.7,1.551-.449,2.346-.456,3.038-.028,6.077.018,9.114-.024a2.153,2.153,0,0,1,2.394,2.075c.008,1.127-1.233,1.326-2.337,1.285-1.747-.065-3.5-.018-5.247-.018v-.026" transform="translate(-187.313 -457.05)" fill="#246bfd"/>
    <path id="Path_59669" data-name="Path 59669" d="M269.586,4.694c0,1.1.046,2.2-.015,3.3a1.4,1.4,0,0,1-1.442,1.381c-.948.057-1.69-.382-1.723-1.364-.073-2.2-.066-4.4.009-6.6A1.442,1.442,0,0,1,268.108,0a1.438,1.438,0,0,1,1.454,1.388c.056,1.1.014,2.2.014,3.3h.01" transform="translate(-236.294 0)" fill="#246bfd"/>
    <path id="Path_59670" data-name="Path 59670" d="M38,379.163a1.557,1.557,0,0,1-1.81-.951,1.617,1.617,0,0,1,.654-2.171c1.713-1.065,3.474-2.056,5.245-3.021a1.389,1.389,0,0,1,1.971.339c.3.542.992,1.358.237,1.993a34.087,34.087,0,0,1-6.3,3.811" transform="translate(-31.948 -330.668)" fill="#246bfd"/>
    <path id="Path_59671" data-name="Path 59671" d="M378.41,39.319c-1.188,2.24-2.135,4.7-3.964,6.5-.831.816-2.167.337-2.489-1.1-.288-1.28,3.223-6.078,4.439-6.7,1.6-.819,1.645.276,2.014,1.295" transform="translate(-329.963 -33.476)" fill="#246bfd"/>
    <path id="Path_59672" data-name="Path 59672" d="M139.133,45.515c-.03,1.025-.334,1.615-.959,1.862A1.644,1.644,0,0,1,136,46.783c-1.039-1.71-2.025-3.453-3.014-5.193-.388-.684-.538-1.55.123-1.995a2,2,0,0,1,2.158.177c2.063,1.5,2.478,4.1,3.869,5.743" transform="translate(-117.68 -34.909)" fill="#246bfd"/>
    <path id="Path_59673" data-name="Path 59673" d="M451.167,142.271c-1.118.115-1.644-.241-1.934-.859a1.379,1.379,0,0,1,.459-1.935c2-1.112,3.669-2.871,6.18-3.047.642-.045,1.178-.432,1.576.337.32.619.4,1.421-.085,1.806a31.277,31.277,0,0,1-6.2,3.7" transform="translate(-398.354 -120.9)" fill="#246bfd"/>
    <path id="Path_59674" data-name="Path 59674" d="M450.974,373.142c.956-.045,6.2,3.426,6.711,4.172.6.879-.376,1.056-.5,1.594-.215.947-1.035.738-1.526.473-1.919-1.038-3.791-2.167-5.652-3.308a1.475,1.475,0,0,1-.544-1.937,1.642,1.642,0,0,1,1.51-.995" transform="translate(-398.606 -330.999)" fill="#246bfd"/>
    <path id="Path_59675" data-name="Path 59675" d="M42.539,139.588c-1.952-1.109-4.362-2-6.136-3.951a1.25,1.25,0,0,1-.014-1.738,1.57,1.57,0,0,1,2.224-.348c1.811,1.047,3.53,2.253,5.33,3.322a1.243,1.243,0,0,1,.6,1.626c-.248.784-.842,1.173-2.007,1.09" transform="translate(-31.973 -118.198)" fill="#246bfd"/>
    <path id="Path_59676" data-name="Path 59676" d="M482.824,266.748c1,0,2.006.007,3.008,0a1.605,1.605,0,0,1,1.791,1.626,1.663,1.663,0,0,1-1.747,1.731c-1.912.072-3.829.074-5.742.015-1.114-.034-1.959-.562-1.9-1.841.066-1.341,1.025-1.557,2.123-1.541.82.012,1.641,0,2.461,0Z" transform="translate(-424.262 -236.611)" fill="#246bfd"/>
    <path id="Path_59677" data-name="Path 59677" d="M4.943,266.453c1.364.452,4.327-1.178,4.218,1.835-.1,2.68-2.9,1.211-4.506,1.529a11.3,11.3,0,0,1-2.746.013c-1.169-.061-1.988-.705-1.9-1.884.073-1.019.855-1.545,1.949-1.5.916.037,1.835.008,2.988.008" transform="translate(0 -236.321)" fill="#246bfd"/>
    <path id="Path_59678" data-name="Path 59678" d="M245.069,584.777c-1.007,0-2.014.018-3.02-.005a1.541,1.541,0,0,1-1.6-1.553,1.56,1.56,0,0,1,1.459-1.7,57.553,57.553,0,0,1,5.76-.063,1.967,1.967,0,0,1,1.833,1.9c.02.95-.867,1.515-1.965,1.447-.821-.051-1.647-.01-2.47-.01v-.012" transform="translate(-213.313 -515.747)" fill="#246bfd"/>
  </g>
</svg>
