<svg xmlns="http://www.w3.org/2000/svg" width="61.794" height="61.792" viewBox="0 0 61.794 61.792"><g fill="#3955a2" transform="translate(-404.209 -2054.145)"><path d="M465.84 2079.339a36.8 36.8 0 0 0-9.269-9.934 1.03 1.03 0 1 0-1.221 1.659 34.7 34.7 0 0 1 8.394 8.832 34.43 34.43 0 0 1-17.573 13.537 17.445 17.445 0 0 0-.178-27.214 34 34 0 0 1 5.562 2.417 1.03 1.03 0 0 0 .988-1.808 36.526 36.526 0 0 0-48.172 12.511 1.03 1.03 0 0 0 0 1.107 36.8 36.8 0 0 0 9.269 9.938 1.03 1.03 0 1 0 1.239-1.646l-.017-.013a34.7 34.7 0 0 1-8.394-8.834 34.43 34.43 0 0 1 17.57-13.54 17.7 17.7 0 0 0-2.865 2.969 1.03 1.03 0 1 0 1.616 1.276l.024-.03a15.32 15.32 0 0 1 11.197-6.061 36 36 0 0 1 1.943-.019 15.437 15.437 0 0 1 .747 30.77q-1.215.063-2.441.041a15.44 15.44 0 0 1-13.4-21.4 1.03 1.03 0 1 0-1.9-.8 17.48 17.48 0 0 0 5.232 20.459 34.3 34.3 0 0 1-5.542-2.41 1.03 1.03 0 0 0-.988 1.806 35.95 35.95 0 0 0 17.289 4.416 36.63 36.63 0 0 0 30.894-16.923 1.03 1.03 0 0 0 0-1.107"/><path d="M441.309 2083.547a1.03 1.03 0 0 0 1.774 1.046 9.279 9.279 0 1 0-3.277 3.277 1.03 1.03 0 0 0-1.016-1.791l-.028.015a7.209 7.209 0 1 1-.052-12.442 3.07 3.07 0 1 0 2.67 2.737 7.19 7.19 0 0 1-.071 7.158m-2.265-6.142a1.05 1.05 0 0 1-1.455 0 1.03 1.03 0 1 1 1.46 0Zm13.57 30.292h-35.015a1.03 1.03 0 0 0-1.031 1.031v2.06a5.16 5.16 0 0 0 5.15 5.15h26.775a5.16 5.16 0 0 0 5.15-5.15v-2.06a1.03 1.03 0 0 0-1.029-1.031m-1.031 3.09a3.09 3.09 0 0 1-3.09 3.09h-26.775a3.09 3.09 0 0 1-3.09-3.09v-1.03h32.955Zm-16.477-50.463a1.03 1.03 0 0 0 1.029-1.031v-4.119a1.031 1.031 0 0 0-2.062 0v4.119a1.03 1.03 0 0 0 1.033 1.031m7.777.927a1.03 1.03 0 0 0 1.382-.452l.006-.009 2.06-4.121a1.031 1.031 0 0 0-1.845-.92l-2.06 4.119a1.03 1.03 0 0 0 .453 1.386m8.704 2.161a1.03 1.03 0 0 0 .858-.459l2.059-3.093a1.03 1.03 0 1 0-1.713-1.143l-2.06 3.09a1.029 1.029 0 0 0 .855 1.6m7.21 4.124a1 1 0 0 0 .57-.173l3.09-2.06a1.03 1.03 0 1 0-1.143-1.713l-3.088 2.06a1.03 1.03 0 0 0 .571 1.886m-32.85-6.749a1.03 1.03 0 0 0 1.843-.92l-2.06-4.119a1.03 1.03 0 0 0-1.843.92Zm-8.173 2.17a1.03 1.03 0 1 0 1.713-1.143l-2.059-3.089a1.03 1.03 0 1 0-1.717 1.139Zm-6.921 4.405a1.03 1.03 0 0 0 1.141-1.713l-3.09-2.06a1.03 1.03 0 0 0-1.142 1.714Zm25.287 37.248v-4.119a1.03 1.03 0 1 0-2.06 0v4.119a1.03 1.03 0 1 0 2.06 0m5.149 1.029a1.03 1.03 0 0 0 .884-.5l3.09-5.148a1.031 1.031 0 0 0-1.746-1.094l-.017.032-3.09 5.15a1.03 1.03 0 0 0 .881 1.559m12.61-9.946-7.21 8.238a1.031 1.031 0 1 0 1.55 1.358l7.21-8.238a1.031 1.031 0 1 0-1.551-1.358m-24.97 9.947a1.029 1.029 0 0 0 .881-1.559l-3.09-5.15a1.03 1.03 0 0 0-1.765 1.061l3.09 5.148a1.03 1.03 0 0 0 .884.5m-6.178.005a1.032 1.032 0 0 0 .775-1.709l-7.21-8.238a1.03 1.03 0 0 0-1.544 1.358l7.207 8.234a1.04 1.04 0 0 0 .771.351"/></g></svg>