<svg id="Group_28421" data-name="Group 28421" xmlns="http://www.w3.org/2000/svg" xmlns:xlink="http://www.w3.org/1999/xlink" width="40.723" height="40.729" viewBox="0 0 40.723 40.729">
  <defs>
    <clipPath id="clip-path">
      <rect id="Rectangle_11299" data-name="Rectangle 11299" width="40.722" height="40.729" fill="none" stroke="#246bfd" stroke-width="1"/>
    </clipPath>
  </defs>
  <g id="Group_28420" data-name="Group 28420" clip-path="url(#clip-path)">
    <path id="Path_1188" data-name="Path 1188" d="M1.418,25.559a19.7,19.7,0,0,1,5.1-19.036,19.708,19.708,0,0,1,27.873,0L31.27,9.648A15.29,15.29,0,0,0,5.688,24.419Z" transform="translate(-0.094 -0.094)" fill="none" stroke="#246bfd" stroke-linecap="round" stroke-linejoin="round" stroke-width="1.5"/>
    <path id="Path_1189" data-name="Path 1189" d="M40.317,17.448a19.7,19.7,0,0,1-5.1,19.036,19.71,19.71,0,0,1-27.873,0l3.125-3.125A15.29,15.29,0,0,0,36.047,18.588Z" transform="translate(-0.918 -2.183)" fill="none" stroke="#246bfd" stroke-linecap="round" stroke-linejoin="round" stroke-width="1.5"/>
    <path id="Path_1190" data-name="Path 1190" d="M4.223,32.515l1.264,7.318,6.054-6.054Z" transform="translate(-0.528 -4.068)" fill="none" stroke="#246bfd" stroke-linecap="round" stroke-linejoin="round" stroke-width="1.5"/>
    <path id="Path_1191" data-name="Path 1191" d="M41.277,12.992,40.012,5.674l-6.054,6.054Z" transform="translate(-4.249 -0.71)" fill="none" stroke="#246bfd" stroke-linecap="round" stroke-linejoin="round" stroke-width="1.5"/>
    <path id="Path_1192" data-name="Path 1192" d="M28.9,18.3c-2.208-2.208-4.514-2.451-7.235-2.369a7.286,7.286,0,0,1-6.22-3.145c-3.749,4.426-3.286,11.328,1.206,15.821a8.661,8.661,0,0,0,12.248,0A7.287,7.287,0,0,0,28.9,18.3Z" transform="translate(-1.617 -1.6)" fill="none" stroke="#246bfd" stroke-linecap="round" stroke-linejoin="round" stroke-width="1.5"/>
    <path id="Path_1193" data-name="Path 1193" d="M30.46,32.106A61.954,61.954,0,0,0,18.274,20.484" transform="translate(-2.286 -2.563)" fill="none" stroke="#246bfd" stroke-linecap="round" stroke-linejoin="round" stroke-width="1.5"/>
    <path id="Path_1194" data-name="Path 1194" d="M27.828,21.87a13.778,13.778,0,0,1-.384,5.474" transform="translate(-3.434 -2.736)" fill="none" stroke="#246bfd" stroke-linecap="round" stroke-linejoin="round" stroke-width="1.5"/>
    <path id="Path_1195" data-name="Path 1195" d="M19.493,26.16a13.8,13.8,0,0,0,4.493-.492" transform="translate(-2.439 -3.211)" fill="none" stroke="#246bfd" stroke-linecap="round" stroke-linejoin="round" stroke-width="1.5"/>
  </g>
</svg>
