<svg xmlns="http://www.w3.org/2000/svg" xmlns:xlink="http://www.w3.org/1999/xlink" width="50.668" height="48.546" viewBox="0 0 50.668 48.546">
  <defs>
    <clipPath id="clip-path">
      <rect id="Rectangle_11295" data-name="Rectangle 11295" width="50.668" height="48.546" fill="#246bfd" stroke="#246bfd" stroke-width="1"/>
    </clipPath>
  </defs>
  <g id="Group_28412" data-name="Group 28412" clip-path="url(#clip-path)">
    <path id="Path_1157" data-name="Path 1157" d="M50.511,22.5a3.181,3.181,0,0,0-2.92-2.846L44,19.35a1.906,1.906,0,0,1-1.309-3.122l2.3-2.771a3.183,3.183,0,0,0,.023-4.078,25.554,25.554,0,0,0-3.885-3.852,3.179,3.179,0,0,0-4.074.055L34.3,7.9a1.907,1.907,0,0,1-3.133-1.282l-.333-3.587a3.182,3.182,0,0,0-2.867-2.9A25.673,25.673,0,0,0,22.5.157a3.182,3.182,0,0,0-2.846,2.922l-.3,3.591a1.906,1.906,0,0,1-3.122,1.307l-2.772-2.3a3.179,3.179,0,0,0-4.076-.022A25.434,25.434,0,0,0,5.528,9.54a3.178,3.178,0,0,0,.055,4.075L7.9,16.367A1.907,1.907,0,0,1,6.622,19.5l-3.587.333A3.181,3.181,0,0,0,.137,22.7a25.616,25.616,0,0,0,.021,5.468,3.18,3.18,0,0,0,2.921,2.846l2.142.182-.773,1.341a2.3,2.3,0,0,0,.839,3.135L7.2,36.779a2.255,2.255,0,0,0,1.136.306,2.323,2.323,0,0,0,.6-.079,2.271,2.271,0,0,0,1.157-.739,17.65,17.65,0,0,0,2.066,2.483l-.184.321a2.287,2.287,0,0,0,1.975,3.43,2.3,2.3,0,0,0,.459-.047,2.284,2.284,0,0,0,2.275,2.385,2.309,2.309,0,0,0,.6-.08c.074-.02.147-.044.218-.07a2.284,2.284,0,0,0,3.485,1.56,2.278,2.278,0,0,0,2.161,1.562,2.287,2.287,0,0,0,1.878-.98l2.442,1.409a2.267,2.267,0,0,0,1.136.306,2.3,2.3,0,0,0,.6-.08,2.279,2.279,0,0,0,1.685-2.417,2.288,2.288,0,0,0,2.907-2.41A2.29,2.29,0,0,0,36.4,42.583a2.261,2.261,0,0,0,.3-1.354A2.283,2.283,0,0,0,39.31,37.9a20.078,20.078,0,0,0,1.266-1.631,2.263,2.263,0,0,0,1.158.738,2.288,2.288,0,0,0,.6.08,2.257,2.257,0,0,0,1.135-.306l1.917-1.106a2.3,2.3,0,0,0,.841-3.135l-.862-1.491,2.272-.212a3.181,3.181,0,0,0,2.9-2.867,25.616,25.616,0,0,0-.021-5.468M8.667,36.007a1.237,1.237,0,0,1-.947-.123L5.8,34.777a1.262,1.262,0,0,1-.461-1.721l5.51-9.542a1.261,1.261,0,0,1,1.721-.462l1.917,1.107a1.254,1.254,0,0,1,.457,1.705l-.2.353h0L9.424,35.426a1.234,1.234,0,0,1-.758.581m29.8,1.042-4.829-2.787a6.608,6.608,0,0,0,2.1-.539.517.517,0,0,0-.458-.928,6.152,6.152,0,0,1-3.552.378.49.49,0,0,0-.143-.027,7.984,7.984,0,0,1-4.19-2.462.524.524,0,0,0-.358-.16L25,30.462a.535.535,0,0,0-.381.151L23.206,32.03a2.171,2.171,0,0,1-1.683.632,2.137,2.137,0,0,1-1.332-.5.467.467,0,0,1,0-.66l2.556-2.555,0,0,.027-.027a3.236,3.236,0,0,1,1.533-.885L27.6,27.15a3.252,3.252,0,0,1,2.226.157l.859.366a4.321,4.321,0,0,0,3.274.081,11.408,11.408,0,0,0,1.325-.583l4.7,8.137A21.155,21.155,0,0,1,38.6,37.135c-.045-.03-.088-.059-.133-.086M34.6,24.65a2.263,2.263,0,0,0,.17,1.622,10.367,10.367,0,0,1-1.167.512,3.277,3.277,0,0,1-2.514-.063l-.858-.365a4.3,4.3,0,0,0-2.9-.206l-3.294.883a4.259,4.259,0,0,0-1.8.965c-.671-.189-1.348-.313-2.059-.444A14.633,14.633,0,0,1,15.9,26.272a2.28,2.28,0,0,0-.892-3.008l-.081-.048a10.623,10.623,0,0,1,20.819,0l-.08.048A2.26,2.26,0,0,0,34.6,24.65M13.327,41.3a1.259,1.259,0,0,1-.459-1.711l1.779-3.079a1.253,1.253,0,0,1,2.17,1.253l-1.779,3.079a1.252,1.252,0,0,1-1.71.458m3.689,2.461a1.244,1.244,0,0,1-1.532-.884,1.234,1.234,0,0,1,.122-.95l2.1-3.647.328-.568a1.253,1.253,0,0,1,2.17,1.253l-2.432,4.214a1.242,1.242,0,0,1-.761.582m2.115,1.647a1.255,1.255,0,0,1-.46-1.711l2.763-4.783a1.253,1.253,0,1,1,2.17,1.253L22.947,41.3h0l-2.1,3.647a1.254,1.254,0,0,1-1.711.459m3.394,1.2a1.257,1.257,0,0,1-.459-1.711l1.778-3.08a1.253,1.253,0,0,1,2.17,1.253l-1.778,3.08a1.254,1.254,0,0,1-1.71.458m15.886-6.954a1.254,1.254,0,0,1-1.711.458l-4.329-2.5a.517.517,0,0,0-.516.9l3.2,1.845a1.253,1.253,0,0,1-1.257,2.169L30.6,40.681a.517.517,0,0,0-.517.9l2.052,1.185.005,0a1.253,1.253,0,0,1-1.252,2.17l-2.058-1.188a.517.517,0,0,0-.518.9l.922.532h0a1.253,1.253,0,0,1-1.253,2.17l-2.432-1.4,1.358-2.351a2.283,2.283,0,0,0-2.2-3.417,2.293,2.293,0,0,0-1.052-2.613,2.289,2.289,0,0,0-2.373.053,2.272,2.272,0,0,0-2.755-1.481,2.293,2.293,0,0,0-.638.28,2.287,2.287,0,0,0-4.146-.419l-1.057,1.831a18.25,18.25,0,0,1-2.006-2.514l4.7-8.138A15.61,15.61,0,0,0,20,28.571c.479.088.94.173,1.386.276L19.459,30.77a1.5,1.5,0,0,0,0,2.122,3.155,3.155,0,0,0,2.011.8,3.211,3.211,0,0,0,2.465-.934L25.194,31.5l1.611.048a8.911,8.911,0,0,0,4.57,2.6l6.579,3.8a1.261,1.261,0,0,1,.458,1.711m6.453-4.879-1.916,1.107a1.251,1.251,0,0,1-1.705-.458l-5.521-9.562a1.251,1.251,0,0,1,.458-1.705L38.1,23.052a1.252,1.252,0,0,1,.626-.168,1.3,1.3,0,0,1,.33.044,1.252,1.252,0,0,1,.766.586l5.509,9.542a1.261,1.261,0,0,1-.462,1.721m4.64-6.915a2.159,2.159,0,0,1-1.966,1.945l-2.746.255L40.713,23a2.3,2.3,0,0,0-3.134-.84l-.9.517a11.657,11.657,0,0,0-22.7,0l-.9-.517A2.3,2.3,0,0,0,9.955,23l-4.164,7.21-2.626-.223a2.157,2.157,0,0,1-1.981-1.93,24.519,24.519,0,0,1-.019-5.247A2.158,2.158,0,0,1,3.13,20.863l3.588-.333A2.94,2.94,0,0,0,8.695,15.7L6.374,12.949a2.157,2.157,0,0,1-.038-2.765,24.524,24.524,0,0,1,3.7-3.727,2.158,2.158,0,0,1,2.765.016l2.771,2.3a2.941,2.941,0,0,0,4.814-2.016l.3-3.591a2.158,2.158,0,0,1,1.93-1.982,24.576,24.576,0,0,1,5.247-.019A2.159,2.159,0,0,1,29.807,3.13l.333,3.588a2.939,2.939,0,0,0,4.828,1.976l2.752-2.322a2.159,2.159,0,0,1,2.765-.037,24.535,24.535,0,0,1,3.728,3.7A2.158,2.158,0,0,1,44.2,12.8l-2.3,2.772a2.939,2.939,0,0,0,2.015,4.812l3.591.3a2.158,2.158,0,0,1,1.982,1.93,24.633,24.633,0,0,1,.02,5.247" transform="translate(0 0)" fill="#246bfd" stroke="#246bfd" stroke-width="1"/>
  </g>
</svg>
