<svg id="Group_28419" data-name="Group 28419" xmlns="http://www.w3.org/2000/svg" xmlns:xlink="http://www.w3.org/1999/xlink" width="39.417" height="41.971" viewBox="0 0 39.417 41.971">
  <defs>
    <clipPath id="clip-path">
      <rect id="Rectangle_11298" data-name="Rectangle 11298" width="39.417" height="41.971" fill="#246bfd" stroke="#246bfd" stroke-width="0.5"/>
    </clipPath>
  </defs>
  <g id="Group_28418" data-name="Group 28418" transform="translate(0 0)" clip-path="url(#clip-path)">
    <path id="Path_1187" data-name="Path 1187" d="M27.057,29.282c1.847-2.155,3.94-4.6,3.836-9.143a11.184,11.184,0,0,0-22.368,0c-.1,4.547,1.989,6.989,3.836,9.143,1.263,1.472,2.353,2.747,2.611,4.483v5.216a.527.527,0,0,0,.155.372L16.9,41.1a4.44,4.44,0,0,0,2.913.869h.072a4.133,4.133,0,0,0,2.721-.877l1.7-1.75a.526.526,0,0,0,.147-.364V33.765c.257-1.737,1.348-3.01,2.61-4.483M16.014,34.247H23.4V36.58H16.014Zm3.695-19.983a.92.92,0,1,1,.919-.92.922.922,0,0,1-.919.92M9.569,20.157v-.012a10.14,10.14,0,0,1,20.279,0v.012c.1,4.15-1.775,6.333-3.584,8.445a10.724,10.724,0,0,0-2.776,4.6H20.231V15.236a1.965,1.965,0,1,0-1.045,0V33.2H15.929a10.729,10.729,0,0,0-2.776-4.6c-1.809-2.111-3.682-4.295-3.584-8.444m12.284,20.21a3.026,3.026,0,0,1-1.982.559,3.571,3.571,0,0,1-2.24-.566l-1.618-1.6V37.625H23.4v1.143ZM19.709,3.741a.523.523,0,0,1,.522.522V7.112a.523.523,0,0,1-1.045,0V4.263a.523.523,0,0,1,.523-.522m8.2,2.2a.523.523,0,0,1,.192.714L26.677,9.119a.525.525,0,0,1-.453.261.518.518,0,0,1-.26-.07.523.523,0,0,1-.192-.714L27.2,6.129a.522.522,0,0,1,.713-.192m3.346,8.143a.522.522,0,0,1-.521-.906L33.2,11.75a.523.523,0,1,1,.522.906Zm4.333,6.586H32.741a.522.522,0,1,1,0-1.045H35.59a.522.522,0,1,1,0,1.045m-4.333,5.542,2.467,1.424a.523.523,0,0,1-.262.976.518.518,0,0,1-.26-.07l-2.467-1.424a.522.522,0,0,1,.521-.906M17.063,28.661v2.694a.522.522,0,0,0,1.045,0V28.428a.519.519,0,0,0-.173-.388L16.779,27a2.038,2.038,0,1,0-.878.616ZM14.222,25.7a.992.992,0,1,1,.992.991.994.994,0,0,1-.992-.991m.991-6.419a2.02,2.02,0,0,0,.689-.121L17.063,20.2V22.9a.523.523,0,0,0,1.045,0V19.972a.521.521,0,0,0-.174-.389l-1.155-1.036a2.036,2.036,0,1,0-1.566.737m0-3.028a.992.992,0,1,1-.992.992.994.994,0,0,1,.992-.992M24.1,23.667A2.036,2.036,0,0,0,22.532,27l-1.155,1.036a.524.524,0,0,0-.172.389v2.927a.522.522,0,1,0,1.045,0V28.662l1.161-1.043a2.013,2.013,0,0,0,.689.121,2.037,2.037,0,0,0,0-4.073m0,3.027a.992.992,0,1,1,.992-.991.993.993,0,0,1-.992.991m-2.722-7.11a.521.521,0,0,0-.172.389V22.9a.522.522,0,0,0,1.045,0V20.206l1.161-1.042a2.013,2.013,0,0,0,.689.121,2.04,2.04,0,1,0-1.567-.738ZM24.1,16.255a.992.992,0,1,1-.992.992.994.994,0,0,1,.992-.992M12.22,6.129,13.645,8.6a.523.523,0,0,1-.906.523L11.315,6.652a.522.522,0,1,1,.9-.522m-3.8,8.02a.52.52,0,0,1-.261-.069L5.695,12.655a.523.523,0,1,1,.522-.906l2.466,1.425a.522.522,0,0,1-.262.975M6.675,20.667H3.828a.522.522,0,1,1,0-1.045H6.675a.522.522,0,1,1,0,1.045M8.16,26.208a.523.523,0,1,1,.522.906L6.216,28.538a.522.522,0,1,1-.521-.906ZM3.469,28.913a.522.522,0,1,1-.908.515A19.711,19.711,0,0,1,36.591,9.535l.779-2.906a.522.522,0,1,1,1.009.27l-1.112,4.154a.524.524,0,0,1-.506.387.548.548,0,0,1-.135-.017l-4.153-1.113a.522.522,0,1,1,.27-1.009l2.965.794a18.667,18.667,0,0,0-32.24,18.82m10.5,9.115a.522.522,0,0,1-.494.353.528.528,0,0,1-.17-.029A19.751,19.751,0,0,1,6.034,33.9v3.015a.523.523,0,0,1-1.045,0v-4.3a.523.523,0,0,1,.523-.522h4.3a.523.523,0,0,1,0,1.045H6.747a18.737,18.737,0,0,0,6.9,4.227.523.523,0,0,1,.324.664m25.45-18.32a19.714,19.714,0,0,1-13.3,18.644.522.522,0,1,1-.339-.987,18.692,18.692,0,0,0,11.863-22.86.522.522,0,1,1,1-.29,19.744,19.744,0,0,1,.776,5.493" transform="translate(0 0)" fill="#246bfd" stroke="#246bfd" stroke-width="0.5"/>
  </g>
</svg>
