<svg xmlns="http://www.w3.org/2000/svg" xmlns:xlink="http://www.w3.org/1999/xlink" width="40.984" height="40.982" viewBox="0 0 40.984 40.982">
  <defs>
    <clipPath id="clip-path">
      <rect id="Rectangle_11297" data-name="Rectangle 11297" width="40.984" height="40.982" fill="#246bfd" stroke="#246bfd" stroke-width="0.5"/>
    </clipPath>
  </defs>
  <g id="Group_28416" data-name="Group 28416" clip-path="url(#clip-path)">
    <path id="Path_1171" data-name="Path 1171" d="M44.336,18.124a.843.843,0,0,1-.8-.561,14.01,14.01,0,0,0-1.66-3.223.847.847,0,0,1,1.39-.967,15.647,15.647,0,0,1,1.863,3.616.846.846,0,0,1-.51,1.084.832.832,0,0,1-.288.051" transform="translate(-5.221 -1.628)" fill="#246bfd" stroke="#246bfd" stroke-width="0.5"/>
    <path id="Path_1172" data-name="Path 1172" d="M44.336,18.124a.843.843,0,0,1-.8-.561,14.01,14.01,0,0,0-1.66-3.223.847.847,0,0,1,1.39-.967,15.647,15.647,0,0,1,1.863,3.616.846.846,0,0,1-.51,1.084A.832.832,0,0,1,44.336,18.124Z" transform="translate(-5.221 -1.628)" fill="#246bfd" stroke="#246bfd" stroke-miterlimit="10" stroke-width="0.5"/>
    <path id="Path_1173" data-name="Path 1173" d="M16.568,12.777a.847.847,0,0,1-.65-1.388c.27-.325.56-.633.849-.921A15.135,15.135,0,0,1,27.539,6.005a7.526,7.526,0,0,1,.951.041.846.846,0,0,1-.209,1.679,5.635,5.635,0,0,0-.742-.027,13.452,13.452,0,0,0-9.576,3.968c-.255.253-.508.521-.745.806a.844.844,0,0,1-.65.305" transform="translate(-1.967 -0.751)" fill="#246bfd" stroke="#246bfd" stroke-width="0.5"/>
    <path id="Path_1174" data-name="Path 1174" d="M16.568,12.777a.847.847,0,0,1-.65-1.388c.27-.325.56-.633.849-.921A15.135,15.135,0,0,1,27.539,6.005a7.526,7.526,0,0,1,.951.041.846.846,0,0,1-.209,1.679,5.635,5.635,0,0,0-.742-.027,13.452,13.452,0,0,0-9.576,3.968c-.255.253-.508.521-.745.806A.844.844,0,0,1,16.568,12.777Z" transform="translate(-1.967 -0.751)" fill="#246bfd" stroke="#246bfd" stroke-miterlimit="10" stroke-width="0.5"/>
    <path id="Path_1175" data-name="Path 1175" d="M39.748,43.617a.846.846,0,0,1-.846-.846V39.333a14.386,14.386,0,0,1,2.607-8.255A13.347,13.347,0,0,0,43.981,23.3a.846.846,0,0,1,1.693,0,15.03,15.03,0,0,1-2.78,8.751,12.686,12.686,0,0,0-2.3,7.282v3.437a.847.847,0,0,1-.847.846" transform="translate(-4.867 -2.809)" fill="#246bfd" stroke="#246bfd" stroke-width="0.5"/>
    <path id="Path_1176" data-name="Path 1176" d="M39.748,43.617a.846.846,0,0,1-.846-.846V39.333a14.386,14.386,0,0,1,2.607-8.255A13.347,13.347,0,0,0,43.981,23.3a.846.846,0,0,1,1.693,0,15.03,15.03,0,0,1-2.78,8.751,12.686,12.686,0,0,0-2.3,7.282v3.437A.847.847,0,0,1,39.748,43.617Z" transform="translate(-4.867 -2.809)" fill="#246bfd" stroke="#246bfd" stroke-miterlimit="10" stroke-width="0.5"/>
    <path id="Path_1177" data-name="Path 1177" d="M20.391,44.464a.846.846,0,0,1-.846-.846v-.55L15.456,44.31a2.984,2.984,0,0,1-.99.154,3.39,3.39,0,0,1-3.386-3.386V36H7.693a1.69,1.69,0,0,1-1.427-2.6l2.388-3.777a.846.846,0,0,1,1.43.9L7.7,34.3l4.229.005a.848.848,0,0,1,.847.847v5.926a1.7,1.7,0,0,0,1.693,1.693,1.392,1.392,0,0,0,.46-.069l5.219-1.589a.856.856,0,0,1,.75.13.846.846,0,0,1,.344.682v1.693a.847.847,0,0,1-.847.846" transform="translate(-0.751 -3.657)" fill="#246bfd" stroke="#246bfd" stroke-width="0.5"/>
    <path id="Path_1178" data-name="Path 1178" d="M20.391,44.464a.846.846,0,0,1-.846-.846v-.55L15.456,44.31a2.984,2.984,0,0,1-.99.154,3.39,3.39,0,0,1-3.386-3.386V36H7.693a1.69,1.69,0,0,1-1.427-2.6l2.388-3.777a.846.846,0,0,1,1.43.9L7.7,34.3l4.229.005a.848.848,0,0,1,.847.847v5.926a1.7,1.7,0,0,0,1.693,1.693,1.392,1.392,0,0,0,.46-.069l5.219-1.589a.856.856,0,0,1,.75.13.846.846,0,0,1,.344.682v1.693A.847.847,0,0,1,20.391,44.464Z" transform="translate(-0.751 -3.657)" fill="#246bfd" stroke="#246bfd" stroke-miterlimit="10" stroke-width="0.5"/>
    <path id="Path_1179" data-name="Path 1179" d="M17.977,28.741H4.433A4.238,4.238,0,0,1,.2,24.508V16.043A4.238,4.238,0,0,1,4.433,11.81H17.977a2.543,2.543,0,0,1,2.54,2.54v2.54a.846.846,0,0,1-1.693,0V14.35a.848.848,0,0,0-.847-.847H4.433a2.543,2.543,0,0,0-2.54,2.54v8.465a2.542,2.542,0,0,0,2.54,2.539H17.977a.847.847,0,0,0,.847-.846v-2.54a.846.846,0,0,1,1.693,0V26.2a2.543,2.543,0,0,1-2.54,2.54" transform="translate(-0.025 -1.478)" fill="#246bfd" stroke="#246bfd" stroke-width="0.5"/>
    <path id="Path_1180" data-name="Path 1180" d="M17.977,28.741H4.433A4.238,4.238,0,0,1,.2,24.508V16.043A4.238,4.238,0,0,1,4.433,11.81H17.977a2.543,2.543,0,0,1,2.54,2.54v2.54a.846.846,0,0,1-1.693,0V14.35a.848.848,0,0,0-.847-.847H4.433a2.543,2.543,0,0,0-2.54,2.54v8.465a2.542,2.542,0,0,0,2.54,2.539H17.977a.847.847,0,0,0,.847-.846v-2.54a.846.846,0,0,1,1.693,0V26.2A2.543,2.543,0,0,1,17.977,28.741Z" transform="translate(-0.025 -1.478)" fill="#246bfd" stroke="#246bfd" stroke-miterlimit="10" stroke-width="0.5"/>
    <path id="Path_1181" data-name="Path 1181" d="M39.988,25.114h-23.7a2.543,2.543,0,0,1-2.54-2.54V19.188a2.543,2.543,0,0,1,2.54-2.54h23.7a2.543,2.543,0,0,1,2.54,2.54v3.387a2.543,2.543,0,0,1-2.54,2.54m-23.7-6.773a.847.847,0,0,0-.847.846v3.387a.847.847,0,0,0,.847.846h23.7a.847.847,0,0,0,.847-.846V19.188a.847.847,0,0,0-.847-.846Z" transform="translate(-1.72 -2.083)" fill="#246bfd" stroke="#246bfd" stroke-width="0.5"/>
    <path id="Path_1182" data-name="Path 1182" d="M39.988,25.114h-23.7a2.543,2.543,0,0,1-2.54-2.54V19.188a2.543,2.543,0,0,1,2.54-2.54h23.7a2.543,2.543,0,0,1,2.54,2.54v3.387A2.543,2.543,0,0,1,39.988,25.114Zm-23.7-6.773a.847.847,0,0,0-.847.846v3.387a.847.847,0,0,0,.847.846h23.7a.847.847,0,0,0,.847-.846V19.188a.847.847,0,0,0-.847-.846Z" transform="translate(-1.72 -2.083)" fill="#246bfd" stroke="#246bfd" stroke-miterlimit="10" stroke-width="0.5"/>
    <path id="Path_1183" data-name="Path 1183" d="M6.848,28.741A.848.848,0,0,1,6,27.894V12.657a.846.846,0,1,1,1.693,0V27.894a.847.847,0,0,1-.846.847" transform="translate(-0.751 -1.478)" fill="#246bfd" stroke="#246bfd" stroke-width="0.5"/>
    <path id="Path_1184" data-name="Path 1184" d="M6.848,28.741A.848.848,0,0,1,6,27.894V12.657a.846.846,0,1,1,1.693,0V27.894A.847.847,0,0,1,6.848,28.741Z" transform="translate(-0.751 -1.478)" fill="#246bfd" stroke="#246bfd" stroke-miterlimit="10" stroke-width="0.5"/>
    <path id="Path_1185" data-name="Path 1185" d="M35.88,10.358a.848.848,0,0,1-.847-.847V1.047A.847.847,0,0,1,36.258.289l8.465,4.233a.846.846,0,0,1,0,1.514L36.26,10.268a.856.856,0,0,1-.38.09m.847-7.942V8.142l5.725-2.864Z" transform="translate(-4.383 -0.025)" fill="#246bfd" stroke="#246bfd" stroke-width="0.5"/>
    <path id="Path_1186" data-name="Path 1186" d="M35.88,10.358a.848.848,0,0,1-.847-.847V1.047A.847.847,0,0,1,36.258.289l8.465,4.233a.846.846,0,0,1,0,1.514L36.26,10.268A.856.856,0,0,1,35.88,10.358Zm.847-7.942V8.142l5.725-2.864Z" transform="translate(-4.383 -0.025)" fill="#246bfd" stroke="#246bfd" stroke-miterlimit="10" stroke-width="0.5"/>
  </g>
</svg>
