<svg xmlns="http://www.w3.org/2000/svg" xmlns:xlink="http://www.w3.org/1999/xlink" width="39.23" height="39.808" viewBox="0 0 39.23 39.808">
  <defs>
    <clipPath id="clip-path">
      <rect id="Rectangle_11296" data-name="Rectangle 11296" width="39.23" height="39.808" fill="#246bfd" stroke="#246bfd" stroke-width="1"/>
    </clipPath>
  </defs>
  <g id="Group_28414" data-name="Group 28414" clip-path="url(#clip-path)">
    <path id="Path_1158" data-name="Path 1158" d="M30.257,44.6H11.769a.569.569,0,0,1-.569-.569V41.177a2.858,2.858,0,0,1,2.854-2.855H27.972a2.858,2.858,0,0,1,2.854,2.855v2.857a.569.569,0,0,1-.569.569M12.337,43.465H29.688V41.177a1.719,1.719,0,0,0-1.717-1.717H14.054a1.719,1.719,0,0,0-1.717,1.717Z" transform="translate(-1.401 -4.795)" fill="#246bfd" stroke="#246bfd" stroke-width="1"/>
    <path id="Path_1159" data-name="Path 1159" d="M27.423,35.822H14.16a.569.569,0,0,1-.569-.569v-.007c.038-3.092-1.045-5.033-3.991-7.165a.568.568,0,0,1-.152-.757L20.305,9.508a.592.592,0,0,1,.972,0L32.135,27.325a.569.569,0,0,1-.15.756,10.043,10.043,0,0,0-4,7.249.568.568,0,0,1-.563.493m-12.7-1.137h12.21a11,11,0,0,1,3.962-7.2L20.792,10.9,10.69,27.475c2.348,1.781,3.916,3.77,4.034,7.21" transform="translate(-1.172 -1.158)" fill="#246bfd" stroke="#246bfd" stroke-width="1"/>
    <path id="Path_1160" data-name="Path 1160" d="M22.339,21.467a.569.569,0,0,1-.569-.569V9.8a.569.569,0,0,1,1.137,0V20.9a.569.569,0,0,1-.569.569" transform="translate(-2.724 -1.156)" fill="#246bfd" stroke="#246bfd" stroke-width="1"/>
    <path id="Path_1161" data-name="Path 1161" d="M22.038,27.252a2.67,2.67,0,1,1,2.669-2.67,2.669,2.669,0,0,1-2.669,2.67m0-4.2a1.532,1.532,0,1,0,1.532,1.532,1.532,1.532,0,0,0-1.532-1.532Z" transform="translate(-2.423 -2.742)" fill="#246bfd" stroke="#246bfd" stroke-width="1"/>
    <path id="Path_1162" data-name="Path 1162" d="M36.323,15.359a.57.57,0,0,1-.561-.475,13.249,13.249,0,0,0-10.891-10.9.569.569,0,1,1,.162-1.126l.023,0A14.39,14.39,0,0,1,36.884,14.7a.569.569,0,0,1-.468.654.556.556,0,0,1-.094.008" transform="translate(-3.051 -0.357)" fill="#246bfd" stroke="#246bfd" stroke-width="1"/>
    <path id="Path_1163" data-name="Path 1163" d="M6.729,15.36a.545.545,0,0,1-.093-.008.569.569,0,0,1-.469-.654A14.4,14.4,0,0,1,18,2.87a.569.569,0,0,1,.186,1.122A13.261,13.261,0,0,0,7.291,14.883a.569.569,0,0,1-.563.477" transform="translate(-0.771 -0.358)" fill="#246bfd" stroke="#246bfd" stroke-width="1"/>
    <path id="Path_1164" data-name="Path 1164" d="M37.839,21.588a2.878,2.878,0,1,1,2.878-2.878,2.877,2.877,0,0,1-2.878,2.878m0-4.618a1.74,1.74,0,1,0,1.74,1.74,1.741,1.741,0,0,0-1.74-1.74" transform="translate(-4.374 -1.981)" fill="#246bfd" stroke="#246bfd" stroke-width="1"/>
    <path id="Path_1165" data-name="Path 1165" d="M22.009,5.972a2.878,2.878,0,1,1,2.878-2.878v0a2.881,2.881,0,0,1-2.878,2.874m0-4.617A1.74,1.74,0,1,0,23.749,3.1a1.74,1.74,0,0,0-1.74-1.743" transform="translate(-2.394 -0.027)" fill="#246bfd" stroke="#246bfd" stroke-width="1"/>
    <path id="Path_1166" data-name="Path 1166" d="M6.179,21.588a2.878,2.878,0,1,1,2.878-2.878,2.877,2.877,0,0,1-2.878,2.878m0-4.618a1.74,1.74,0,1,0,1.74,1.74,1.74,1.74,0,0,0-1.74-1.74" transform="translate(-0.413 -1.981)" fill="#246bfd" stroke="#246bfd" stroke-width="1"/>
    <path id="Path_1167" data-name="Path 1167" d="M37.094,3.776H24.962a.569.569,0,0,1,0-1.137H37.094a.569.569,0,0,1,0,1.137" transform="translate(-3.052 -0.33)" fill="#246bfd" stroke="#246bfd" stroke-width="1"/>
    <path id="Path_1168" data-name="Path 1168" d="M17.974,3.776H5.842a.569.569,0,1,1,0-1.137H17.974a.569.569,0,0,1,0,1.137" transform="translate(-0.66 -0.33)" fill="#246bfd" stroke="#246bfd" stroke-width="1"/>
    <path id="Path_1169" data-name="Path 1169" d="M43.448,5.754H38.829a.574.574,0,0,1-.569-.569V.568A.574.574,0,0,1,38.829,0h4.619a.568.568,0,0,1,.569.568V5.185a.568.568,0,0,1-.569.569M39.4,4.617h3.48V1.137H39.4Z" transform="translate(-4.787 0)" fill="#246bfd" stroke="#246bfd" stroke-width="1"/>
    <path id="Path_1170" data-name="Path 1170" d="M5.188,5.754H.569A.568.568,0,0,1,0,5.185V.568A.568.568,0,0,1,.569,0H5.188a.568.568,0,0,1,.569.568V5.185a.568.568,0,0,1-.569.569M1.137,4.617h3.48V1.137H1.137Z" transform="translate(0 0)" fill="#246bfd" stroke="#246bfd" stroke-width="1"/>
  </g>
</svg>
